<?xml version="1.0" standalone="no"?>
<!DOCTYPE svg PUBLIC "-//W3C//DTD SVG 20010904//EN"
 "http://www.w3.org/TR/2001/REC-SVG-20010904/DTD/svg10.dtd">
<svg version="1.0" xmlns="http://www.w3.org/2000/svg"
 width="512.000000pt" height="512.000000pt" viewBox="0 0 512.000000 512.000000"
 preserveAspectRatio="xMidYMid meet">

<g transform="translate(0.000000,512.000000) scale(0.100000,-0.100000)"
fill="#000000" stroke="none">
<path d="M0 2560 l0 -2560 2560 0 2560 0 0 2560 0 2560 -2560 0 -2560 0 0
-2560z m2772 1945 c103 -35 174 -81 258 -165 204 -205 249 -512 113 -773 -56
-107 -173 -221 -283 -275 -97 -48 -183 -72 -252 -72 l-48 0 0 661 0 662 72 -7
c39 -3 102 -17 140 -31z m-97 -1585 c258 -30 479 -135 663 -314 328 -318 427
-801 253 -1223 -127 -309 -400 -553 -722 -647 -75 -21 -227 -46 -286 -46 l-23
0 0 309 0 308 58 6 c183 18 343 143 412 324 32 80 38 219 15 299 -52 180 -185
313 -360 359 -33 8 -74 15 -92 15 l-33 0 0 310 c0 241 3 310 13 310 6 0 52 -5
102 -10z"/>
</g>
</svg>
